<?xml version="1.0" encoding="UTF-8" standalone="no"?>
<!DOCTYPE svg PUBLIC "-//W3C//DTD SVG 1.1//EN" "http://www.w3.org/Graphics/SVG/1.1/DTD/svg11.dtd">
<svg width="100%" height="100%" viewBox="0 0 550 550" version="1.1" xmlns="http://www.w3.org/2000/svg" xmlns:xlink="http://www.w3.org/1999/xlink" xml:space="preserve" xmlns:serif="http://www.serif.com/" style="fill-rule:evenodd;clip-rule:evenodd;stroke-linejoin:round;stroke-miterlimit:2;">
    <g transform="matrix(1,0,0,1,-89.5431,-93.7902)">
        <g transform="matrix(0.989433,0.144992,-0.144992,0.989433,30.3356,-53.7058)">
            <text x="383.617px" y="181.265px" style="font-family:'TengwarCursive', 'Tengwar Cursive';font-size:72px;">k</text>
        </g>
        <g transform="matrix(0.978702,0.205287,-0.205287,0.978702,45.9139,-77.1416)">
            <text x="394.729px" y="182.704px" style="font-family:'TengwarCursive', 'Tengwar Cursive';font-size:72px;">a</text>
        </g>
        <g transform="matrix(0.976562,0.215234,-0.215234,0.976562,49.5362,-83.5911)">
            <text x="408.59px" y="185.658px" style="font-family:'TengwarCursive', 'Tengwar Cursive';font-size:72px;">p</text>
        </g>
        <g transform="matrix(0.956401,0.292057,-0.292057,0.956401,71.9514,-111.273)">
            <text x="408.666px" y="185.354px" style="font-family:'TengwarCursive', 'Tengwar Cursive';font-size:72px;">o</text>
        </g>
        <g transform="matrix(0.942344,0.334646,-0.334646,0.942344,87.4264,-129.824)">
            <text x="420.475px" y="188.807px" style="font-family:'TengwarCursive', 'Tengwar Cursive';font-size:72px;">z</text>
        </g>
        <g transform="matrix(0.90824,0.41845,-0.41845,0.90824,120.65,-163.69)">
            <text x="433.56px" y="193.252px" style="font-family:'TengwarCursive', 'Tengwar Cursive';font-size:72px;">e</text>
        </g>
        <g transform="matrix(0.858398,0.512985,-0.512985,0.858398,168.099,-203.901)">
            <text x="453.386px" y="202.536px" style="font-family:'TengwarCursive', 'Tengwar Cursive';font-size:72px;">a</text>
        </g>
        <g transform="matrix(0.818321,0.574761,-0.574761,0.818321,205.132,-229.522)">
            <text x="465.626px" y="209.717px" style="font-family:'TengwarCursive', 'Tengwar Cursive';font-size:72px;">k</text>
        </g>
        <g transform="matrix(0.786196,0.617977,-0.617977,0.786196,235.068,-247.281)">
            <text x="474.904px" y="216.08px" style="font-family:'TengwarCursive', 'Tengwar Cursive';font-size:72px;">z</text>
        </g>
        <g transform="matrix(0.727846,0.68574,-0.68574,0.727846,286.179,-272.108)">
            <text x="485.902px" y="224.486px" style="font-family:'TengwarCursive', 'Tengwar Cursive';font-size:72px;">e</text>
        </g>
        <g transform="matrix(0.73546,0.677568,-0.677568,0.73546,288.486,-273.588)">
            <text x="494.614px" y="232.657px" style="font-family:'TengwarCursive', 'Tengwar Cursive';font-size:72px;">p</text>
        </g>
        <g transform="matrix(0.680302,0.732932,-0.732932,0.680302,328.547,-288.363)">
            <text x="494.821px" y="232.428px" style="font-family:'TengwarCursive', 'Tengwar Cursive';font-size:72px;">o</text>
        </g>
        <g transform="matrix(0.630804,0.775942,-0.775942,0.630804,373.07,-301.6)">
            <text x="503.472px" y="241.242px" style="font-family:'TengwarCursive', 'Tengwar Cursive';font-size:72px;">r</text>
        </g>
        <g transform="matrix(0.55683,0.830626,-0.830626,0.55683,442.345,-314.94)">
            <text x="516.316px" y="257.07px" style="font-family:'TengwarCursive', 'Tengwar Cursive';font-size:72px;">k</text>
        </g>
        <g transform="matrix(0.505193,0.863006,-0.863006,0.505193,488.45,-319.348)">
            <text x="522.717px" y="266.286px" style="font-family:'TengwarCursive', 'Tengwar Cursive';font-size:72px;">a</text>
        </g>
        <g transform="matrix(0.445237,0.895413,-0.895413,0.445237,543.332,-320.023)">
            <text x="529.932px" y="278.469px" style="font-family:'TengwarCursive', 'Tengwar Cursive';font-size:72px;">z</text>
        </g>
        <g transform="matrix(0.362783,0.931874,-0.931874,0.362783,612.614,-314.454)">
            <text x="536.238px" y="290.72px" style="font-family:'TengwarCursive', 'Tengwar Cursive';font-size:72px;">e</text>
        </g>
        <g transform="matrix(0.297242,0.954802,-0.954802,0.297242,668.385,-304.358)">
            <text x="540.95px" y="301.871px" style="font-family:'TengwarCursive', 'Tengwar Cursive';font-size:72px;">r</text>
        </g>
        <g transform="matrix(0.140315,0.990107,-0.990107,0.140315,799.931,-259.443)">
            <text x="549.367px" y="330.922px" style="font-family:'TengwarCursive', 'Tengwar Cursive';font-size:72px;">o</text>
        </g>
        <g transform="matrix(0.0964482,0.995338,-0.995338,0.0964482,839.491,-238.716)">
            <text x="551.229px" y="343.027px" style="font-family:'TengwarCursive', 'Tengwar Cursive';font-size:72px;">z</text>
        </g>
        <g transform="matrix(0.0166472,0.999861,-0.999861,0.0166472,900.221,-201.709)">
            <text x="552.659px" y="356.813px" style="font-family:'TengwarCursive', 'Tengwar Cursive';font-size:72px;">a</text>
        </g>
        <g transform="matrix(0.00713526,0.999975,-0.999975,0.00713526,919.799,-184.582)">
            <text x="552.851px" y="370.902px" style="font-family:'TengwarCursive', 'Tengwar Cursive';font-size:72px;">p</text>
        </g>
        <g transform="matrix(-0.0665006,0.997786,-0.997786,-0.0665006,959.991,-156.308)">
            <text x="553.114px" y="370.915px" style="font-family:'TengwarCursive', 'Tengwar Cursive';font-size:72px;">e</text>
        </g>
        <g transform="matrix(-0.134852,0.990866,-0.990866,-0.134852,1006.69,-112.947)">
            <text x="552.652px" y="383.007px" style="font-family:'TengwarCursive', 'Tengwar Cursive';font-size:72px;">r</text>
        </g>
        <g transform="matrix(-0.22591,0.974148,-0.974148,-0.22591,1066.85,-41.4559)">
            <text x="549.895px" y="403.148px" style="font-family:'TengwarCursive', 'Tengwar Cursive';font-size:72px;">k</text>
        </g>
        <g transform="matrix(-0.285373,0.958416,-0.958416,-0.285373,1100.69,7.5197)">
            <text x="547.543px" y="414.116px" style="font-family:'TengwarCursive', 'Tengwar Cursive';font-size:72px;">a</text>
        </g>
        <g transform="matrix(-0.35057,0.936537,-0.936537,-0.35057,1134.71,68.6298)">
            <text x="543.56px" y="427.741px" style="font-family:'TengwarCursive', 'Tengwar Cursive';font-size:72px;">z</text>
        </g>
        <g transform="matrix(-0.364215,0.931315,-0.931315,-0.364215,1145.16,99.2449)">
            <text x="538.705px" y="440.509px" style="font-family:'TengwarCursive', 'Tengwar Cursive';font-size:72px;">p</text>
        </g>
        <g transform="matrix(-0.423292,0.905993,-0.905993,-0.423292,1166.12,138.953)">
            <text x="538.832px" y="440.621px" style="font-family:'TengwarCursive', 'Tengwar Cursive';font-size:72px;">k</text>
        </g>
        <g transform="matrix(-0.490124,0.871653,-0.871653,-0.490124,1189.34,206.219)">
            <text x="534.357px" y="450.964px" style="font-family:'TengwarCursive', 'Tengwar Cursive';font-size:72px;">o</text>
        </g>
        <g transform="matrix(-0.546181,0.837667,-0.837667,-0.546181,1204.24,271.236)">
            <text x="528.647px" y="461.826px" style="font-family:'TengwarCursive', 'Tengwar Cursive';font-size:72px;">r</text>
        </g>
        <g transform="matrix(-0.629645,0.776883,-0.776883,-0.629645,1215.55,378.519)">
            <text x="517.55px" y="478.996px" style="font-family:'TengwarCursive', 'Tengwar Cursive';font-size:72px;">e</text>
        </g>
        <g transform="matrix(-0.686823,0.726825,-0.726825,-0.686823,1215.98,453.234)">
            <text x="510.343px" y="488.589px" style="font-family:'TengwarCursive', 'Tengwar Cursive';font-size:72px;">m</text>
        </g>
        <g transform="matrix(-0.786196,0.617977,-0.617977,-0.786196,1184.67,616.067)">
            <text x="485.763px" y="512.965px" style="font-family:'TengwarCursive', 'Tengwar Cursive';font-size:72px;">i</text>
        </g>
        <g transform="matrix(-0.792616,0.609721,-0.609721,-0.792616,1171.27,642.087)">
            <text x="476.439px" y="520.235px" style="font-family:'TengwarCursive', 'Tengwar Cursive';font-size:72px;">p</text>
        </g>
        <g transform="matrix(-0.840529,0.541766,-0.541766,-0.840529,1159.19,699.949)">
            <text x="476.577px" y="520.58px" style="font-family:'TengwarCursive', 'Tengwar Cursive';font-size:72px;">s</text>
        </g>
        <g transform="matrix(-0.883979,0.467527,-0.467527,-0.883979,1112.52,788.18)">
            <text x="458.463px" y="532.131px" style="font-family:'TengwarCursive', 'Tengwar Cursive';font-size:72px;">u</text>
        </g>
        <g transform="matrix(-0.927059,0.374916,-0.374916,-0.927059,1063.49,870.175)">
            <text x="447.097px" y="538.54px" style="font-family:'TengwarCursive', 'Tengwar Cursive';font-size:72px;">m</text>
        </g>
        <g transform="matrix(-0.978379,0.20682,-0.20682,-0.978379,934.175,1003.71)">
            <text x="414.623px" y="550.685px" style="font-family:'TengwarCursive', 'Tengwar Cursive';font-size:72px;">d</text>
        </g>
        <g transform="matrix(-0.990866,0.134852,-0.134852,-0.990866,873.803,1048.45)">
            <text x="401.393px" y="553.818px" style="font-family:'TengwarCursive', 'Tengwar Cursive';font-size:72px;">o</text>
        </g>
        <g transform="matrix(-0.996544,0.0830657,-0.0830657,-0.996544,823.129,1077.13)">
            <text x="389.158px" y="555.689px" style="font-family:'TengwarCursive', 'Tengwar Cursive';font-size:72px;">l</text>
        </g>
        <g transform="matrix(-1,0.000396422,-0.000396422,-1,752.199,1114)">
            <text x="375.989px" y="557.074px" style="font-family:'TengwarCursive', 'Tengwar Cursive';font-size:72px;">o</text>
        </g>
        <g transform="matrix(-0.99789,-0.0649212,0.0649212,-0.99789,690.258,1137.27)">
            <text x="363.607px" y="557.422px" style="font-family:'TengwarCursive', 'Tengwar Cursive';font-size:72px;">r</text>
        </g>
        <g transform="matrix(-0.973794,-0.227432,0.227432,-0.973794,531.969,1171.14)">
            <text x="333.457px" y="554.92px" style="font-family:'TengwarCursive', 'Tengwar Cursive';font-size:72px;">s</text>
        </g>
        <g transform="matrix(-0.951285,-0.308312,0.308312,-0.951285,440.357,1169.4)">
            <text x="312.564px" y="549.913px" style="font-family:'TengwarCursive', 'Tengwar Cursive';font-size:72px;">i</text>
        </g>
        <g transform="matrix(-0.916676,-0.399632,0.399632,-0.916676,358.756,1167.96)">
            <text x="301.14px" y="546.581px" style="font-family:'TengwarCursive', 'Tengwar Cursive';font-size:72px;">t</text>
        </g>
        <g transform="matrix(-0.841343,-0.540502,0.540502,-0.841343,210.245,1125.86)">
            <text x="270.363px" y="532.072px" style="font-family:'TengwarCursive', 'Tengwar Cursive';font-size:72px;">a</text>
        </g>
        <g transform="matrix(-0.78481,-0.619736,0.619736,-0.78481,135.684,1096.53)">
            <text x="258.215px" y="524.707px" style="font-family:'TengwarCursive', 'Tengwar Cursive';font-size:72px;">m</text>
        </g>
        <g transform="matrix(-0.70658,-0.707633,0.707633,-0.70658,47.1505,1038.14)">
            <text x="238.807px" y="509.292px" style="font-family:'TengwarCursive', 'Tengwar Cursive';font-size:72px;">e</text>
        </g>
        <g transform="matrix(-0.651971,-0.758244,0.758244,-0.651971,0.065264,1002.28)">
            <text x="230.053px" y="501.126px" style="font-family:'TengwarCursive', 'Tengwar Cursive';font-size:72px;">t</text>
        </g>
        <g transform="matrix(-0.588165,-0.808741,0.808741,-0.588165,-49.6301,939.773)">
            <text x="214.465px" y="482.523px" style="font-family:'TengwarCursive', 'Tengwar Cursive';font-size:72px;">,</text>
        </g>
        <g transform="matrix(-0.472211,-0.881486,0.881486,-0.472211,-111.935,865.555)">
            <text x="203.158px" y="466.288px" style="font-family:'TengwarCursive', 'Tengwar Cursive';font-size:72px;">c</text>
        </g>
        <g transform="matrix(-0.399632,-0.916676,0.916676,-0.399632,-141.578,815.907)">
            <text x="196.397px" y="454.316px" style="font-family:'TengwarCursive', 'Tengwar Cursive';font-size:72px;">o</text>
        </g>
        <g transform="matrix(-0.359199,-0.933261,0.933261,-0.359199,-153.458,780.932)">
            <text x="191.375px" y="443.15px" style="font-family:'TengwarCursive', 'Tengwar Cursive';font-size:72px;">n</text>
        </g>
        <g transform="matrix(-0.263706,-0.964603,0.964603,-0.263706,-179.816,723.191)">
            <text x="186.103px" y="430.223px" style="font-family:'TengwarCursive', 'Tengwar Cursive';font-size:72px;">s</text>
        </g>
        <g transform="matrix(-0.159768,-0.987155,0.987155,-0.159768,-195.052,652.976)">
            <text x="180.369px" y="409.499px" style="font-family:'TengwarCursive', 'Tengwar Cursive';font-size:72px;">e</text>
        </g>
        <g transform="matrix(-0.0995931,-0.995028,0.995028,-0.0995931,-199.733,614.553)">
            <text x="178.19px" y="397.646px" style="font-family:'TengwarCursive', 'Tengwar Cursive';font-size:72px;">c</text>
        </g>
        <g transform="matrix(-0.0126842,-0.99992,0.99992,-0.0126842,-205.284,565.273)">
            <text x="176.432px" y="383.985px" style="font-family:'TengwarCursive', 'Tengwar Cursive';font-size:72px;">t</text>
        </g>
        <g transform="matrix(0.102736,-0.994709,0.994709,0.102736,-199.804,498.056)">
            <text x="176.171px" y="359.78px" style="font-family:'TengwarCursive', 'Tengwar Cursive';font-size:72px;">e</text>
        </g>
        <g transform="matrix(0.177582,-0.984106,0.984106,0.177582,-196.668,460.166)">
            <text x="176.983px" y="347.749px" style="font-family:'TengwarCursive', 'Tengwar Cursive';font-size:72px;">t</text>
        </g>
        <g transform="matrix(0.272695,-0.9621,0.9621,0.272695,-179.752,410.276)">
            <text x="181.487px" y="324.029px" style="font-family:'TengwarCursive', 'Tengwar Cursive';font-size:72px;">u</text>
        </g>
        <g transform="matrix(0.361351,-0.93243,0.93243,0.361351,-172.497,371.244)">
            <text x="184.76px" y="311.545px" style="font-family:'TengwarCursive', 'Tengwar Cursive';font-size:72px;">r</text>
        </g>
        <g transform="matrix(0.494072,-0.869421,0.869421,0.494072,-147.217,314.22)">
            <text x="196.38px" y="283.604px" style="font-family:'TengwarCursive', 'Tengwar Cursive';font-size:72px;">a</text>
        </g>
        <g transform="matrix(0.568612,-0.822606,0.822606,0.568612,-135.423,284.091)">
            <text x="203.152px" y="271.163px" style="font-family:'TengwarCursive', 'Tengwar Cursive';font-size:72px;">d</text>
        </g>
        <g transform="matrix(0.606161,-0.795342,0.795342,0.606161,-123.646,270.043)">
            <text x="210.847px" y="259.871px" style="font-family:'TengwarCursive', 'Tengwar Cursive';font-size:72px;">i</text>
        </g>
        <g transform="matrix(0.614447,-0.788958,0.788958,0.614447,-113.56,268.612)">
            <text x="218.051px" y="250.495px" style="font-family:'TengwarCursive', 'Tengwar Cursive';font-size:72px;">p</text>
        </g>
        <g transform="matrix(0.654229,-0.756297,0.756297,0.654229,-114.109,251.447)">
            <text x="217.937px" y="250.517px" style="font-family:'TengwarCursive', 'Tengwar Cursive';font-size:72px;">i</text>
        </g>
        <g transform="matrix(0.721691,-0.692215,0.692215,0.721691,-104.298,223.243)">
            <text x="225.478px" y="241.327px" style="font-family:'TengwarCursive', 'Tengwar Cursive';font-size:72px;">s</text>
        </g>
        <g transform="matrix(0.788499,-0.615037,0.615037,0.788499,-88.2507,196.119)">
            <text x="241.027px" y="226.374px" style="font-family:'TengwarCursive', 'Tengwar Cursive';font-size:72px;">c</text>
        </g>
        <g transform="matrix(0.82004,-0.572306,0.572306,0.82004,-79.4141,183.293)">
            <text x="251.747px" y="217.923px" style="font-family:'TengwarCursive', 'Tengwar Cursive';font-size:72px;">i</text>
        </g>
        <g transform="matrix(0.856847,-0.515571,0.515571,0.856847,-71.418,164.994)">
            <text x="261.407px" y="211.104px" style="font-family:'TengwarCursive', 'Tengwar Cursive';font-size:72px;">n</text>
        </g>
        <g transform="matrix(0.904048,-0.427431,0.427431,0.904048,-60.8627,136.296)">
            <text x="273.143px" y="203.708px" style="font-family:'TengwarCursive', 'Tengwar Cursive';font-size:72px;">g</text>
        </g>
        <g transform="matrix(0.960387,-0.27867,0.27867,0.960387,-41.2337,91.6869)">
            <text x="301.883px" y="190.879px" style="font-family:'TengwarCursive', 'Tengwar Cursive';font-size:72px;">e</text>
        </g>
        <g transform="matrix(0.974324,-0.225148,0.225148,0.974324,-34.1255,75.3809)">
            <text x="313.445px" y="187.314px" style="font-family:'TengwarCursive', 'Tengwar Cursive';font-size:72px;">l</text>
        </g>
        <g transform="matrix(0.985736,-0.168298,0.168298,0.985736,-26.3552,57.5623)">
            <text x="326.409px" y="184.262px" style="font-family:'TengwarCursive', 'Tengwar Cursive';font-size:72px;">i</text>
        </g>
        <g transform="matrix(0.997345,-0.0728151,0.0728151,0.997345,-12.3506,25.0896)">
            <text x="337.933px" y="181.936px" style="font-family:'TengwarCursive', 'Tengwar Cursive';font-size:72px;">t</text>
        </g>
        <g transform="matrix(0.999637,0.026948,-0.026948,0.999637,4.99198,-9.69115)">
            <text x="362.054px" y="180.365px" style="font-family:'TengwarCursive', 'Tengwar Cursive';font-size:72px;">.</text>
        </g>
    </g>
</svg>
